<?xml version="1.0" encoding="iso-8859-1"?>
<!-- Generator: Adobe Illustrator 19.0.0, SVG Export Plug-In . SVG Version: 6.00 Build 0)  -->
<svg version="1.1" id="Layer_1" xmlns="http://www.w3.org/2000/svg" xmlns:xlink="http://www.w3.org/1999/xlink" x="0px" y="0px"
	 viewBox="0 0 334.167 334.167" style="enable-background:new 0 0 334.167 334.167;" xml:space="preserve">
<g>
	<path style="fill:#5C6670;" d="M171.667,118.834h-10V92.771c0-17.507,14.244-31.751,31.751-31.751h38.249
		c11.994,0,21.751-9.757,21.751-21.751V24.333h10v14.936c0,17.507-14.244,31.751-31.751,31.751h-38.249
		c-11.994,0-21.751,9.757-21.751,21.751L171.667,118.834L171.667,118.834z"/>
	<path style="fill:#A4A9AD;" d="M0,150.333c0-8.008,6.492-14.5,14.5-14.5h305.167c8.008,0,14.5,6.492,14.5,14.5v139.5
		c0,11-9,20-20,20H20c-11,0-20-9-20-20V150.333z"/>
	<path style="fill:#C3C6C8;" d="M0,133.333c0-8.008,6.492-14.5,14.5-14.5h305.167c8.008,0,14.5,6.492,14.5,14.5v139.5
		c0,11-9,20-20,20H20c-11,0-20-9-20-20V133.333z"/>
	<g>
		<rect x="23.667" y="242.833" style="fill:#333E48;" width="32" height="24"/>
		<rect x="64.333" y="242.833" style="fill:#333E48;" width="113.334" height="24"/>
		<rect x="186.334" y="242.833" style="fill:#333E48;" width="32" height="24"/>
		<rect x="227.002" y="242.833" style="fill:#333E48;" width="32" height="24"/>
		<rect x="23.667" y="205.833" style="fill:#333E48;" width="32" height="24"/>
		<rect x="64.334" y="205.833" style="fill:#333E48;" width="32" height="24"/>
		<rect x="105" y="205.833" style="fill:#333E48;" width="32" height="24"/>
		<rect x="145.667" y="205.833" style="fill:#333E48;" width="32" height="24"/>
		<rect x="186.334" y="205.833" style="fill:#333E48;" width="32" height="24"/>
		<rect x="227.002" y="205.833" style="fill:#333E48;" width="32" height="24"/>
		<rect x="23.667" y="168.833" style="fill:#333E48;" width="32" height="24"/>
		<rect x="64.334" y="168.833" style="fill:#333E48;" width="32" height="24"/>
		<rect x="105" y="168.833" style="fill:#333E48;" width="32" height="24"/>
		<rect x="145.667" y="168.833" style="fill:#333E48;" width="32" height="24"/>
		<rect x="186.334" y="168.833" style="fill:#333E48;" width="72.667" height="24"/>
		<rect x="278.5" y="242.833" style="fill:#333E48;" width="32" height="24"/>
		<rect x="278.5" y="205.833" style="fill:#333E48;" width="32" height="24"/>
		<rect x="278.5" y="168.833" style="fill:#333E48;" width="32" height="24"/>
		<rect x="23.667" y="138.833" style="fill:#333E48;" width="32" height="15"/>
		<rect x="64.334" y="138.833" style="fill:#333E48;" width="32" height="15"/>
		<rect x="105" y="138.833" style="fill:#333E48;" width="32" height="15"/>
		<rect x="145.667" y="138.833" style="fill:#333E48;" width="32" height="15"/>
		<rect x="186.334" y="138.833" style="fill:#333E48;" width="32" height="15"/>
		<rect x="227.002" y="138.833" style="fill:#333E48;" width="32" height="15"/>
	</g>
</g>
<g>
</g>
<g>
</g>
<g>
</g>
<g>
</g>
<g>
</g>
<g>
</g>
<g>
</g>
<g>
</g>
<g>
</g>
<g>
</g>
<g>
</g>
<g>
</g>
<g>
</g>
<g>
</g>
<g>
</g>
</svg>
